<?xml version="1.0" encoding="UTF-8"?>
<!-- Generated by Pixelmator Pro 3.4.3 -->
<svg width="700" height="200" viewBox="0 0 700 200" xmlns="http://www.w3.org/2000/svg">
    <path id="compass" fill="#000000" stroke="none" d="M 82.816162 94.81282 C 79.667801 97.963219 79.669449 103.067734 82.819847 106.21357 C 85.96772 109.361931 91.074753 109.360283 94.220596 106.209885 C 97.368958 103.059494 97.367302 97.954979 94.216911 94.809135 C 91.066513 91.6633 85.962006 91.664948 82.816162 94.81282 Z M 88.496933 38.028946 C 53.987305 38.0401 26.022303 66.023178 26.033451 100.532806 C 26.044601 135.042435 54.027676 163.007431 88.5373 162.996277 C 123.046928 162.985138 151.011932 135.00206 151.000778 100.492432 C 150.989639 65.982803 123.006561 38.017807 88.496933 38.028946 Z M 120.289993 75.319916 L 103.68058 111.694313 C 102.877197 113.453415 101.467178 114.864349 99.708603 115.668861 L 63.347473 132.301758 C 59.153122 134.220459 54.828259 129.898392 56.744244 125.702797 L 73.356171 89.328407 C 74.159554 87.569313 75.569572 86.158386 77.328148 85.353867 L 113.689278 68.720963 C 117.883629 66.804779 122.205971 71.124329 120.289986 75.319916 Z"/>
    <text id="legwiki" xml:space="preserve" x="177.016" y="155" font-family="Helvetica Neue" font-size="144" font-weight="700" fill="#000000">legwiki</text>
</svg>
